<mxfile host="Electron" modified="2023-05-28T20:12:12.369Z" agent="Mozilla/5.0 (Windows NT 10.0; Win64; x64) AppleWebKit/537.36 (KHTML, like Gecko) draw.io/21.2.8 Chrome/112.0.5615.165 Electron/24.2.0 Safari/537.36" etag="ldZ64rc10E48Sr2PPN6F" version="21.2.8" type="device">
  <diagram name="PÃ¡gina-1" id="bCabtzZe-On4UlTafJGf">
    <mxGraphModel dx="2128" dy="1570" grid="1" gridSize="10" guides="1" tooltips="1" connect="1" arrows="1" fold="1" page="1" pageScale="1" pageWidth="827" pageHeight="1169" math="0" shadow="0">
      <root>
        <mxCell id="0" />
        <mxCell id="1" parent="0" />
        <mxCell id="RL7WwLNxWdM-0aOsITRI-57" value="df" style="rounded=0;whiteSpace=wrap;html=1;fillColor=none;" parent="1" vertex="1">
          <mxGeometry x="600" y="940" width="1920" height="620" as="geometry" />
        </mxCell>
        <mxCell id="RL7WwLNxWdM-0aOsITRI-2" value="" style="rounded=0;whiteSpace=wrap;html=1;" parent="1" vertex="1">
          <mxGeometry x="1738.59" y="1049" width="760" height="480" as="geometry" />
        </mxCell>
        <mxCell id="RL7WwLNxWdM-0aOsITRI-3" value="" style="html=1;shadow=0;dashed=0;shape=mxgraph.bootstrap.rrect;rSize=5;fillColor=#ffffff;strokeColor=#999999;" parent="1" vertex="1">
          <mxGeometry x="1947.59" y="1120" width="350" height="380" as="geometry" />
        </mxCell>
        <mxCell id="RL7WwLNxWdM-0aOsITRI-4" value="email@example.com" style="html=1;shadow=0;dashed=0;shape=mxgraph.bootstrap.rrect;rSize=5;fillColor=none;strokeColor=#999999;align=left;spacing=15;fontSize=14;fontColor=#6C767D;" parent="RL7WwLNxWdM-0aOsITRI-3" vertex="1">
          <mxGeometry width="190" height="30" relative="1" as="geometry">
            <mxPoint x="80" y="70" as="offset" />
          </mxGeometry>
        </mxCell>
        <mxCell id="RL7WwLNxWdM-0aOsITRI-5" value="Password" style="html=1;shadow=0;dashed=0;shape=mxgraph.bootstrap.rrect;rSize=5;fillColor=none;strokeColor=#999999;align=left;spacing=15;fontSize=14;fontColor=#6C767D;" parent="RL7WwLNxWdM-0aOsITRI-3" vertex="1">
          <mxGeometry width="190" height="30" relative="1" as="geometry">
            <mxPoint x="80" y="130" as="offset" />
          </mxGeometry>
        </mxCell>
        <mxCell id="RL7WwLNxWdM-0aOsITRI-6" value="Remember me" style="html=1;shadow=0;dashed=0;shape=mxgraph.bootstrap.rrect;rSize=2;fillColor=#EDEDED;strokeColor=#999999;align=left;fontSize=14;fontColor=#000000;labelPosition=right;verticalLabelPosition=middle;verticalAlign=middle;spacingLeft=5;spacingTop=-2;gradientColor=#DEDEDE;" parent="RL7WwLNxWdM-0aOsITRI-3" vertex="1">
          <mxGeometry width="10" height="10" relative="1" as="geometry">
            <mxPoint x="110" y="180" as="offset" />
          </mxGeometry>
        </mxCell>
        <mxCell id="RL7WwLNxWdM-0aOsITRI-7" value="Login" style="html=1;shadow=0;dashed=0;shape=mxgraph.bootstrap.rrect;rSize=5;fillColor=#0085FC;strokeColor=none;align=center;fontSize=14;fontColor=#FFFFFF;" parent="RL7WwLNxWdM-0aOsITRI-3" vertex="1">
          <mxGeometry width="70" height="40" relative="1" as="geometry">
            <mxPoint x="140" y="210" as="offset" />
          </mxGeometry>
        </mxCell>
        <mxCell id="RL7WwLNxWdM-0aOsITRI-8" value="" style="shape=line;strokeColor=#999999;perimeter=none;resizeWidth=1;" parent="RL7WwLNxWdM-0aOsITRI-3" vertex="1">
          <mxGeometry width="350.00000000000006" height="10" relative="1" as="geometry">
            <mxPoint x="3" y="261" as="offset" />
          </mxGeometry>
        </mxCell>
        <mxCell id="RL7WwLNxWdM-0aOsITRI-9" value="Need assistance?&amp;nbsp;&lt;br&gt;&lt;br&gt;Forgot password?" style="html=1;fillColor=none;strokeColor=none;align=center;spacing=20;fontSize=14;" parent="RL7WwLNxWdM-0aOsITRI-3" vertex="1">
          <mxGeometry width="220" height="60" relative="1" as="geometry">
            <mxPoint x="65" y="280" as="offset" />
          </mxGeometry>
        </mxCell>
        <mxCell id="RL7WwLNxWdM-0aOsITRI-10" value="&lt;h3&gt;Log in to your account&lt;/h3&gt;" style="text;strokeColor=none;align=center;fillColor=none;html=1;verticalAlign=middle;whiteSpace=wrap;rounded=0;" parent="RL7WwLNxWdM-0aOsITRI-3" vertex="1">
          <mxGeometry x="80" y="20" width="190" height="40" as="geometry" />
        </mxCell>
        <mxCell id="RL7WwLNxWdM-0aOsITRI-14" value="&lt;h2&gt;&lt;font style=&quot;font-size: 24px;&quot; face=&quot;Verdana&quot;&gt;Welcome Back&lt;/font&gt;&lt;/h2&gt;" style="text;strokeColor=none;align=center;fillColor=none;html=1;verticalAlign=middle;whiteSpace=wrap;rounded=0;" parent="1" vertex="1">
          <mxGeometry x="1996.09" y="1080" width="230" height="30" as="geometry" />
        </mxCell>
        <mxCell id="RL7WwLNxWdM-0aOsITRI-106" style="rounded=0;orthogonalLoop=1;jettySize=auto;html=1;exitX=1;exitY=0.5;exitDx=0;exitDy=0;entryX=-0.014;entryY=0.545;entryDx=0;entryDy=0;entryPerimeter=0;endArrow=none;endFill=0;startArrow=classic;startFill=1;" parent="1" source="RL7WwLNxWdM-0aOsITRI-18" target="RL7WwLNxWdM-0aOsITRI-7" edge="1">
          <mxGeometry relative="1" as="geometry" />
        </mxCell>
        <mxCell id="RL7WwLNxWdM-0aOsITRI-107" value="&amp;nbsp;execute&amp;nbsp;&lt;br&gt;(email &amp;amp;&amp;amp; password not empty)" style="edgeLabel;html=1;align=center;verticalAlign=middle;resizable=0;points=[];labelBorderColor=default;" parent="RL7WwLNxWdM-0aOsITRI-106" vertex="1" connectable="0">
          <mxGeometry x="-0.5255" y="-1" relative="1" as="geometry">
            <mxPoint as="offset" />
          </mxGeometry>
        </mxCell>
        <mxCell id="RL7WwLNxWdM-0aOsITRI-17" value="flux.js" style="swimlane;fontStyle=0;childLayout=stackLayout;horizontal=1;startSize=30;horizontalStack=0;resizeParent=1;resizeParentMax=0;resizeLast=0;collapsible=1;marginBottom=0;whiteSpace=wrap;html=1;fillColor=#fff2cc;gradientColor=#ffd966;strokeColor=#d6b656;" parent="1" vertex="1">
          <mxGeometry x="1190" y="1110" width="443" height="240" as="geometry" />
        </mxCell>
        <mxCell id="RL7WwLNxWdM-0aOsITRI-18" value="action: login(email,password)" style="text;strokeColor=#6c8ebf;fillColor=#dae8fc;align=left;verticalAlign=middle;spacingLeft=4;spacingRight=4;overflow=hidden;points=[[0,0.5],[1,0.5]];portConstraint=eastwest;rotatable=0;whiteSpace=wrap;html=1;" parent="RL7WwLNxWdM-0aOsITRI-17" vertex="1">
          <mxGeometry y="30" width="443" height="30" as="geometry" />
        </mxCell>
        <mxCell id="RL7WwLNxWdM-0aOsITRI-108" value="response 401" style="text;strokeColor=#b85450;fillColor=#f8cecc;align=left;verticalAlign=middle;spacingLeft=4;spacingRight=4;overflow=hidden;points=[[0,0.5],[1,0.5]];portConstraint=eastwest;rotatable=0;whiteSpace=wrap;html=1;" parent="RL7WwLNxWdM-0aOsITRI-17" vertex="1">
          <mxGeometry y="60" width="443" height="30" as="geometry" />
        </mxCell>
        <mxCell id="RL7WwLNxWdM-0aOsITRI-109" value="&lt;blockquote style=&quot;margin: 0 0 0 40px; border: none; padding: 0px;&quot;&gt;&amp;gt;alert (&quot;msg&quot;)&lt;/blockquote&gt;" style="text;strokeColor=none;fillColor=none;align=left;verticalAlign=middle;spacingLeft=4;spacingRight=4;overflow=hidden;points=[[0,0.5],[1,0.5]];portConstraint=eastwest;rotatable=0;whiteSpace=wrap;html=1;" parent="RL7WwLNxWdM-0aOsITRI-17" vertex="1">
          <mxGeometry y="90" width="443" height="30" as="geometry" />
        </mxCell>
        <mxCell id="RL7WwLNxWdM-0aOsITRI-110" value="response 200" style="text;strokeColor=#82b366;fillColor=#d5e8d4;align=left;verticalAlign=middle;spacingLeft=4;spacingRight=4;overflow=hidden;points=[[0,0.5],[1,0.5]];portConstraint=eastwest;rotatable=0;whiteSpace=wrap;html=1;" parent="RL7WwLNxWdM-0aOsITRI-17" vertex="1">
          <mxGeometry y="120" width="443" height="30" as="geometry" />
        </mxCell>
        <mxCell id="RL7WwLNxWdM-0aOsITRI-175" value="&lt;blockquote style=&quot;margin: 0 0 0 40px; border: none; padding: 0px;&quot;&gt;&amp;gt;sessionStorage(token)&lt;/blockquote&gt;" style="text;strokeColor=none;fillColor=none;align=left;verticalAlign=middle;spacingLeft=4;spacingRight=4;overflow=hidden;points=[[0,0.5],[1,0.5]];portConstraint=eastwest;rotatable=0;whiteSpace=wrap;html=1;" parent="RL7WwLNxWdM-0aOsITRI-17" vertex="1">
          <mxGeometry y="150" width="443" height="30" as="geometry" />
        </mxCell>
        <mxCell id="RL7WwLNxWdM-0aOsITRI-176" value="&lt;blockquote style=&quot;margin: 0 0 0 40px; border: none; padding: 0px;&quot;&gt;&amp;gt;setStore(token: data.access_token)&lt;/blockquote&gt;" style="text;strokeColor=none;fillColor=none;align=left;verticalAlign=middle;spacingLeft=4;spacingRight=4;overflow=hidden;points=[[0,0.5],[1,0.5]];portConstraint=eastwest;rotatable=0;whiteSpace=wrap;html=1;" parent="RL7WwLNxWdM-0aOsITRI-17" vertex="1">
          <mxGeometry y="180" width="443" height="30" as="geometry" />
        </mxCell>
        <mxCell id="RL7WwLNxWdM-0aOsITRI-153" value="&lt;blockquote style=&quot;margin: 0 0 0 40px; border: none; padding: 0px;&quot;&gt;&lt;span style=&quot;white-space: pre;&quot;&gt; &lt;span style=&quot;white-space: pre;&quot;&gt; &lt;span style=&quot;white-space: pre;&quot;&gt; &lt;/span&gt;&lt;/span&gt;&lt;/span&gt;&amp;gt;navigate(/dashboard)&lt;/blockquote&gt;" style="text;strokeColor=none;fillColor=none;align=left;verticalAlign=middle;spacingLeft=4;spacingRight=4;overflow=hidden;points=[[0,0.5],[1,0.5]];portConstraint=eastwest;rotatable=0;whiteSpace=wrap;html=1;" parent="RL7WwLNxWdM-0aOsITRI-17" vertex="1">
          <mxGeometry y="210" width="443" height="30" as="geometry" />
        </mxCell>
        <mxCell id="RL7WwLNxWdM-0aOsITRI-87" value="USER LOGIN" style="text;html=1;align=left;verticalAlign=middle;resizable=0;points=[];autosize=1;strokeColor=none;fillColor=none;fontSize=22;fontStyle=1" parent="1" vertex="1">
          <mxGeometry x="640" y="960" width="160" height="40" as="geometry" />
        </mxCell>
        <mxCell id="RL7WwLNxWdM-0aOsITRI-94" value="CUSTOMER" style="text;html=1;align=left;verticalAlign=middle;resizable=0;points=[];autosize=1;strokeColor=none;fillColor=none;fontSize=16;fontStyle=0" parent="1" vertex="1">
          <mxGeometry x="640" y="1005" width="110" height="30" as="geometry" />
        </mxCell>
        <mxCell id="RL7WwLNxWdM-0aOsITRI-95" value="backend" style="swimlane;fontStyle=0;childLayout=stackLayout;horizontal=1;startSize=30;horizontalStack=0;resizeParent=1;resizeParentMax=0;resizeLast=0;collapsible=1;marginBottom=0;whiteSpace=wrap;html=1;fillColor=#647687;fontColor=#ffffff;strokeColor=#314354;" parent="1" vertex="1">
          <mxGeometry x="640" y="1100" width="361" height="260" as="geometry" />
        </mxCell>
        <mxCell id="RL7WwLNxWdM-0aOsITRI-96" value="route: /token" style="text;strokeColor=none;fillColor=none;align=left;verticalAlign=middle;spacingLeft=4;spacingRight=4;overflow=hidden;points=[[0,0.5],[1,0.5]];portConstraint=eastwest;rotatable=0;whiteSpace=wrap;html=1;" parent="RL7WwLNxWdM-0aOsITRI-95" vertex="1">
          <mxGeometry y="30" width="361" height="30" as="geometry" />
        </mxCell>
        <mxCell id="RL7WwLNxWdM-0aOsITRI-97" value="method: POST" style="text;strokeColor=none;fillColor=none;align=left;verticalAlign=middle;spacingLeft=4;spacingRight=4;overflow=hidden;points=[[0,0.5],[1,0.5]];portConstraint=eastwest;rotatable=0;whiteSpace=wrap;html=1;" parent="RL7WwLNxWdM-0aOsITRI-95" vertex="1">
          <mxGeometry y="60" width="361" height="30" as="geometry" />
        </mxCell>
        <mxCell id="RL7WwLNxWdM-0aOsITRI-101" value="body:&lt;br&gt;&lt;span style=&quot;white-space: pre;&quot;&gt; &lt;/span&gt;email&lt;br&gt;&lt;span style=&quot;white-space: pre;&quot;&gt; &lt;/span&gt;password" style="text;strokeColor=none;fillColor=none;align=left;verticalAlign=middle;spacingLeft=4;spacingRight=4;overflow=hidden;points=[[0,0.5],[1,0.5]];portConstraint=eastwest;rotatable=0;whiteSpace=wrap;html=1;" parent="RL7WwLNxWdM-0aOsITRI-95" vertex="1">
          <mxGeometry y="90" width="361" height="50" as="geometry" />
        </mxCell>
        <mxCell id="RL7WwLNxWdM-0aOsITRI-99" value="&amp;gt;&amp;gt;&amp;gt;User.query.filter_by(email &amp;amp;&amp;amp; password).first()" style="text;strokeColor=none;fillColor=none;align=left;verticalAlign=middle;spacingLeft=4;spacingRight=4;overflow=hidden;points=[[0,0.5],[1,0.5]];portConstraint=eastwest;rotatable=0;whiteSpace=wrap;html=1;" parent="RL7WwLNxWdM-0aOsITRI-95" vertex="1">
          <mxGeometry y="140" width="361" height="30" as="geometry" />
        </mxCell>
        <mxCell id="RL7WwLNxWdM-0aOsITRI-103" value="&amp;gt;&amp;gt;&amp;gt;create_access_token(user.email)" style="text;strokeColor=none;fillColor=none;align=left;verticalAlign=middle;spacingLeft=4;spacingRight=4;overflow=hidden;points=[[0,0.5],[1,0.5]];portConstraint=eastwest;rotatable=0;whiteSpace=wrap;html=1;" parent="RL7WwLNxWdM-0aOsITRI-95" vertex="1">
          <mxGeometry y="170" width="361" height="30" as="geometry" />
        </mxCell>
        <mxCell id="RL7WwLNxWdM-0aOsITRI-100" value="return { &quot;msg&quot;,&quot;Bad username or password&quot; }, 401" style="text;strokeColor=#b85450;fillColor=#f8cecc;align=left;verticalAlign=middle;spacingLeft=4;spacingRight=4;overflow=hidden;points=[[0,0.5],[1,0.5]];portConstraint=eastwest;rotatable=0;whiteSpace=wrap;html=1;" parent="RL7WwLNxWdM-0aOsITRI-95" vertex="1">
          <mxGeometry y="200" width="361" height="30" as="geometry" />
        </mxCell>
        <mxCell id="RL7WwLNxWdM-0aOsITRI-102" value="return { access_token=access_token }, 200" style="text;strokeColor=#82b366;fillColor=#d5e8d4;align=left;verticalAlign=middle;spacingLeft=4;spacingRight=4;overflow=hidden;points=[[0,0.5],[1,0.5]];portConstraint=eastwest;rotatable=0;whiteSpace=wrap;html=1;" parent="RL7WwLNxWdM-0aOsITRI-95" vertex="1">
          <mxGeometry y="230" width="361" height="30" as="geometry" />
        </mxCell>
        <mxCell id="RL7WwLNxWdM-0aOsITRI-104" style="rounded=0;orthogonalLoop=1;jettySize=auto;html=1;exitX=0;exitY=0.5;exitDx=0;exitDy=0;entryX=1;entryY=0.5;entryDx=0;entryDy=0;fillColor=#dae8fc;strokeColor=#6c8ebf;" parent="1" source="RL7WwLNxWdM-0aOsITRI-18" target="RL7WwLNxWdM-0aOsITRI-96" edge="1">
          <mxGeometry relative="1" as="geometry" />
        </mxCell>
        <mxCell id="RL7WwLNxWdM-0aOsITRI-105" value="&amp;nbsp;fetch&amp;nbsp;" style="edgeLabel;html=1;align=center;verticalAlign=middle;resizable=0;points=[];labelBorderColor=default;spacingTop=0;spacing=11;" parent="RL7WwLNxWdM-0aOsITRI-104" vertex="1" connectable="0">
          <mxGeometry x="0.2383" relative="1" as="geometry">
            <mxPoint x="15" as="offset" />
          </mxGeometry>
        </mxCell>
        <mxCell id="RL7WwLNxWdM-0aOsITRI-140" value="&amp;nbsp;fetch&amp;nbsp;" style="edgeLabel;html=1;align=center;verticalAlign=middle;resizable=0;points=[];labelBorderColor=default;spacingTop=0;spacing=11;" parent="RL7WwLNxWdM-0aOsITRI-104" vertex="1" connectable="0">
          <mxGeometry x="0.2383" relative="1" as="geometry">
            <mxPoint x="43" y="190" as="offset" />
          </mxGeometry>
        </mxCell>
        <mxCell id="RL7WwLNxWdM-0aOsITRI-129" style="rounded=0;orthogonalLoop=1;jettySize=auto;html=1;exitX=1;exitY=0.5;exitDx=0;exitDy=0;entryX=0;entryY=0.5;entryDx=0;entryDy=0;fillColor=#f8cecc;strokeColor=#b85450;" parent="1" source="RL7WwLNxWdM-0aOsITRI-100" target="RL7WwLNxWdM-0aOsITRI-108" edge="1">
          <mxGeometry relative="1" as="geometry" />
        </mxCell>
        <mxCell id="RL7WwLNxWdM-0aOsITRI-134" style="rounded=0;orthogonalLoop=1;jettySize=auto;html=1;exitX=1;exitY=0.5;exitDx=0;exitDy=0;entryX=0;entryY=0.5;entryDx=0;entryDy=0;fillColor=#d5e8d4;strokeColor=#82b366;" parent="1" source="RL7WwLNxWdM-0aOsITRI-102" target="RL7WwLNxWdM-0aOsITRI-110" edge="1">
          <mxGeometry relative="1" as="geometry" />
        </mxCell>
      </root>
    </mxGraphModel>
  </diagram>
</mxfile>
